<svg xmlns="http://www.w3.org/2000/svg" xmlns:xlink="http://www.w3.org/1999/xlink" width="135" height="82" viewBox="0 0 135 82">
  <defs>
    <polygon id="brand-subaru-a" points="1.42 .764 21.93 .764 21.93 18.444 1.42 18.444"/>
    <polygon id="brand-subaru-c" points=".345 .764 20.856 .764 20.856 18.444 .345 18.444"/>
    <polygon id="brand-subaru-e" points=".335 .559 98.263 .559 98.263 54.024 .335 54.024"/>
  </defs>
  <g fill="none" fill-rule="evenodd" transform="translate(0 -1)">
    <g transform="translate(112.247 63.997)">
      <mask id="brand-subaru-b" fill="#fff">
        <use xlink:href="#brand-subaru-a"/>
      </mask>
      <path fill="#FEFEFE" d="M1.42023034,0.764214815 L1.42023034,13.4816593 C1.54764607,16.5234556 3.32691573,18.2157333 6.37124157,18.3371593 C9.84938764,18.4754926 13.407927,18.4877889 17.1909607,18.3310111 C20.0836011,18.2141963 21.7733764,16.3897333 21.9296124,13.472437 L21.9296124,0.764214815 L17.363882,0.764214815 L17.363882,12.4641407 C17.3380955,13.5446778 16.6873652,13.9873444 15.8439944,14.0657333 C13.116691,14.2793815 10.1937135,14.2793815 7.36629775,14.0657333 C6.59876966,13.9981037 5.9950618,13.2526407 5.96169101,12.4287889 L5.96169101,0.764214815 L1.42023034,0.764214815 Z" mask="url(#brand-subaru-b)"/>
    </g>
    <path fill="#FEFEFE" d="M5.28047191 64.7562926C2.91873034 64.8946259.400752809 66.1611444.0579438202 69.1184037-.0163820225 69.7501259-.0163820225 70.1528296.0473258427 70.6523667.41288764 73.9062741 2.76097753 74.693237 4.63429213 74.856163 6.5682809 75.0298481 14.4650225 75.4586815 15.4267079 75.5339963 16.7251348 75.6415889 16.9086742 76.1611074 16.9086742 76.8619963 16.9086742 77.6474222 16.5491798 78.1054593 15.4267079 78.1715519 12.9936742 78.3206444 8.4218764 78.2760704 6.12839326 78.1992185 5.31839326 78.1715519 4.73288764 77.9548296 4.70710112 76.9680519L4.69496629 76.1196074.120134831 76.1196074C.120134831 76.1196074.109516854 76.5253852.114067416 76.6329778.135303371 80.2834407 1.36092135 81.9741815 4.79507865 82.246237 8.10637079 82.5044593 13.1135056 82.4675704 16.8222135 82.2262556 20.066764 82.0172185 21.2590112 79.7439407 21.3773258 77.1279037 21.3894607 76.9864963 21.3773258 76.7252 21.3773258 76.5084778 21.2787303 73.4144222 19.5024944 71.9004407 17.0603596 71.6668111 15.4813146 71.5254037 7.04153933 71.1380704 5.85535955 71.0335519 4.95131461 70.9520889 4.58423596 70.4879037 4.58423596 69.7255333 4.58423596 69.1061074 4.968 68.6234778 5.778 68.5635333 8.48103371 68.3775519 13.1605281 68.4175148 15.009573 68.5297185 15.9196854 68.5865889 16.2806966 69.0415519 16.3277191 69.5795148L16.3277191 70.3895333 20.9071011 70.3895333 20.9071011 69.6655889C20.8191236 66.182663 19.1596854 64.8515889 16.0000787 64.7209407 12.5659213 64.5841444 8.83901124 64.5441815 5.28047191 64.7562926M59.9213427 75.1792481L59.9213427 75.1792481C60.6934213 75.2146 61.7400506 75.545063 61.7400506 76.8192667 61.7400506 78.1426556 60.8724101 78.4669704 59.8212303 78.5069333L50.6063427 78.5069333 50.6063427 75.1792481 59.9213427 75.1792481zM59.9213427 68.6314704L59.9213427 68.6314704C60.7571292 68.6914148 61.476118 69.0449333 61.476118 69.9932852 61.476118 70.9600815 60.8284213 71.4611556 59.8394326 71.519563L50.6063427 71.519563 50.6063427 68.6314704 59.9213427 68.6314704zM46.0360618 82.392563L61.2015674 82.392563C64.7555562 82.2988037 66.3421854 80.3990259 66.3421854 76.9868037 66.3421854 74.5874889 65.2106124 73.2902296 64.3566236 73.0273963 65.0710618 72.7138407 65.8901629 71.6548222 65.8901629 69.5905815 65.8901629 66.4996 63.9516236 64.8749519 61.081736 64.7612111 58.1314551 64.7566 46.0360618 64.7612111 46.0360618 64.7612111L46.0360618 82.392563z"/>
    <g transform="translate(22.753 63.997)">
      <mask id="brand-subaru-d" fill="#fff">
        <use xlink:href="#brand-subaru-c"/>
      </mask>
      <path fill="#FEFEFE" d="M0.344780899,0.764214815 L0.344780899,13.4816593 C0.472196629,16.5234556 2.24994944,18.2157333 5.3003427,18.3371593 C8.77545506,18.4754926 12.3370281,18.4877889 16.1215787,18.3310111 C19.0096685,18.2141963 20.6964101,16.3897333 20.8556798,13.472437 L20.8556798,0.764214815 L16.2929831,0.764214815 L16.2929831,12.4641407 C16.2641629,13.5446778 15.608882,13.9873444 14.7670281,14.0657333 C12.0427584,14.2793815 9.11523034,14.2793815 6.29236517,14.0657333 C5.52332022,13.9981037 4.91354494,13.2526407 4.88472472,12.4287889 L4.88472472,0.764214815 L0.344780899,0.764214815 Z" mask="url(#brand-subaru-d)"/>
    </g>
    <path fill="#FEFEFE" d="M105.341107,68.6319315 L105.341107,68.6319315 C106.418073,68.7180056 106.98386,69.2021722 106.98386,70.3165241 C106.98386,71.3740056 106.428691,71.9688389 105.341107,72.0226352 L95.8956573,72.0226352 L95.8956573,68.6365426 L105.341107,68.6319315 Z M91.3481292,64.7570611 L91.3481292,82.3930241 L95.8956573,82.388413 L95.8956573,76.0742648 L105.341107,76.0742648 C106.418073,76.0957833 106.973242,76.8151167 107.039983,77.7757648 C107.15223,79.5725611 107.108242,82.3807278 107.108242,82.3807278 L111.727062,82.3930241 C111.727062,82.3930241 111.707343,79.8430796 111.648185,77.9448389 C111.592062,75.917487 110.574253,74.3358759 109.65959,74.0438389 C110.4165,73.6165426 111.46768,72.511413 111.46768,70.0736722 C111.46768,66.4462648 109.583747,64.9015426 106.58341,64.7570611 L91.3481292,64.7570611 Z"/>
    <polygon fill="#FEFEFE" points="84.733 75.524 71.429 75.524 71.432 79.258 84.733 79.258"/>
    <polygon fill="#FEFEFE" points="75.622 64.756 66.131 82.389 71.321 82.389 80.43 64.756"/>
    <polygon fill="#FEFEFE" points="80.732 64.756 75.931 64.756 84.875 82.389 90.212 82.389"/>
    <g transform="translate(18.202 .978)">
      <mask id="brand-subaru-f" fill="#fff">
        <use xlink:href="#brand-subaru-e"/>
      </mask>
      <path fill="#FEFEFE" d="M87.7861011,20.9362889 L87.7861011,20.9362889 C87.6465506,20.9362889 85.6215506,20.6580852 84.558236,20.5151407 C83.3189663,20.3306963 81.7839101,20.1570111 80.403573,19.8542148 C79.8438539,19.7404741 79.0960449,19.4361407 78.7122809,18.6353444 C78.440764,18.0774 78.2875618,17.4933259 77.9599213,16.3943444 C77.8613258,16.0807889 77.6337978,15.1877704 77.5776742,14.9679741 C77.5094157,14.7205111 77.3744157,14.6667148 77.2485169,14.6667148 C77.1211011,14.6667148 76.9861011,14.7082148 76.9087416,14.9679741 C76.8450337,15.1954556 76.6296404,15.9731963 76.5128427,16.3682148 C76.1745843,17.536363 75.9849775,18.1726963 75.7574494,18.6507148 C75.3903708,19.3992519 74.8048652,19.7051222 73.8325618,19.8864926 C72.8632921,20.0524926 70.902,20.3306963 68.9437416,20.5873815 C65.1136854,21.066937 64.951382,21.0577148 61.2805955,20.6442519 C60.174809,20.5212889 57.2654831,20.1462519 56.3068315,20.0109926 C52.790764,19.5929185 46.9372247,18.9857889 43.3817191,18.3494556 C41.450764,17.9913259 39.727618,17.5686407 38.6081798,14.7896778 C37.8679551,12.9129556 37.4204831,11.2345111 37.0003146,9.71438148 C36.6438539,8.45554815 36.2434045,6.73714074 36.1129551,6.16228889 C36.0477303,5.88715926 35.9324494,5.79186296 35.7564944,5.79186296 C35.5972247,5.79186296 35.4864944,5.87793704 35.4045843,6.16228889 C35.2604831,6.72484444 34.7963258,8.51702963 34.4595843,9.70823333 C34.0287978,11.1776407 33.6283483,12.929863 32.8729551,14.7896778 C31.9021685,17.1398074 30.6750337,17.8576037 28.1570562,18.3632889 C24.5545281,19.0595667 20.163236,19.6067519 16.092,20.0524926 C14.0912697,20.2676778 8.30295506,20.9086222 8.05874157,20.9362889 C7.81149438,20.9608815 7.72806742,21.1514741 7.72806742,21.2652148 C7.72806742,21.3897148 7.81149438,21.5726222 8.05874157,21.6002889 C8.30295506,21.6341037 14.2475056,22.2658259 16.1177865,22.4671778 C20.3316067,22.9329 24.2390225,23.4262889 27.9811011,24.0887519 C31.6018315,24.7250852 32.448236,26.6002704 33.1414382,28.9334926 C33.6875056,30.7794741 34.4201461,34.0072519 34.6749775,35.2706963 C34.919191,36.3742889 35.3530112,38.6936778 35.4045843,38.8981037 C35.4607079,39.1486407 35.5653708,39.2531593 35.7473933,39.2531593 C35.9127303,39.2531593 36.0325618,39.1594 36.1038539,38.8981037 C36.1508764,38.6752333 36.5922809,36.294363 36.8122247,35.2630111 C37.0837416,34.0256963 37.8300337,30.6519 38.3427303,28.9089 C39.2664944,25.8348259 40.1659888,24.760437 43.3817191,24.1917333 C46.6156517,23.6045852 52.6997528,22.8744926 56.3341348,22.4395111 C57.2427303,22.3211593 59.3405393,22.145937 61.2805955,21.9046222 C64.9847528,21.4896222 65.3093596,21.520363 68.9558764,21.9784 C70.8792472,22.2120296 72.1958764,22.3964741 73.7491348,22.6623815 C74.9899213,22.8744926 75.4571124,23.2326222 75.8332921,24.3285296 C76.1381798,25.1954185 76.3778427,26.1529926 76.5340787,26.8062333 C76.6766629,27.3795481 76.8662697,28.3125296 76.9087416,28.5123444 C76.9678989,28.7475111 77.1302022,28.7920852 77.2181798,28.7920852 C77.3213258,28.7920852 77.5094157,28.7244556 77.5655393,28.5123444 C77.6140787,28.2664185 77.7915506,27.3795481 77.9265506,26.8062333 C78.0645843,26.2175481 78.3967753,25.0355667 78.6364382,24.3285296 C78.9853146,23.3263815 79.5404831,22.889863 80.4687978,22.6977333 C81.5002584,22.4671778 83.2795281,22.2320111 84.5764382,22.0352704 C85.5639101,21.8954 87.6344157,21.6294926 87.7861011,21.6049 C87.9908764,21.5895296 88.1061573,21.4588815 88.1061573,21.2652148 C88.1061573,21.0869185 87.9772247,20.9608815 87.7861011,20.9362889 M76.4688539,31.6724926 L76.4688539,31.6724926 C77.2485169,31.7893074 78.586382,32.0506037 80.0850337,32.3949 C81.0846404,32.6239185 81.4274494,33.1480481 81.6519438,33.7966778 C81.8855393,34.426863 82.0432921,35.1477333 82.2389663,35.9147148 C82.4103708,36.5664185 82.5302022,37.1351222 82.5408202,37.2365667 C82.5878427,37.4348444 82.7243596,37.5409 82.8669438,37.5409 C83.0140787,37.5409 83.1551461,37.4486778 83.2036854,37.2534741 C83.2325056,37.1166778 83.3508202,36.5449 83.508573,35.9008815 C83.6845281,35.2107519 83.883236,34.4453074 84.1001461,33.7889926 C84.3064382,33.1741778 84.6462135,32.6669556 85.5290225,32.4440852 C86.3663258,32.2534926 87.7512135,32.0167889 88.8706517,31.8492519 C89.853573,31.7016963 91.5342472,31.480363 91.7739101,31.4480852 C92.0166067,31.4065852 92.1167191,31.2590296 92.1167191,31.1114741 C92.1167191,30.9639185 92.0423933,30.7963815 91.7739101,30.7687148 C91.5327303,30.7302889 89.9081798,30.5043444 88.8585169,30.3491037 C87.5767753,30.1585111 86.2540787,29.9402519 85.5290225,29.7711778 C84.9859888,29.6436037 84.4475056,29.2639556 84.2032921,28.7336778 C83.9150899,28.1342333 83.7831236,27.7622704 83.5859326,27.1044185 C83.457,26.6125667 83.259809,25.9086037 83.2036854,25.714937 C83.1475618,25.5028259 82.9867753,25.4521037 82.8669438,25.4521037 C82.7410449,25.4521037 82.6121124,25.5120481 82.5484045,25.7287704 C82.4786292,25.9777704 82.3117753,26.6033444 82.1600899,27.1121037 C81.9431798,27.8683259 81.7914944,28.2833259 81.5609326,28.7336778 C81.3015506,29.242437 80.8965506,29.6282333 80.0850337,29.8019185 C78.586382,30.1246963 77.2849213,30.3998259 76.4688539,30.5274 C74.7138539,30.7963815 73.8780674,30.9239556 71.2129551,30.5443074 C70.019191,30.3644741 68.0078427,30.0586037 66.4287978,29.7481222 C65.5596404,29.574437 64.7769438,29.3269741 64.3416067,28.4570111 C64.0564382,27.8683259 63.8728989,27.1828074 63.6681236,26.4834556 C63.5331236,26.0407889 63.2737416,25.1431593 63.1887978,24.8004 C63.123573,24.5667704 63.0295281,24.4776222 62.8444719,24.4776222 C62.656382,24.4776222 62.5653708,24.5667704 62.5016629,24.8004 C62.4091348,25.0939741 62.1709888,25.9624 62.0299213,26.4757704 C61.8251461,27.1597519 61.6249213,27.8790852 61.3443034,28.4447148 C60.9165506,29.3269741 60.2081798,29.5390852 59.2904831,29.7358259 C57.9784045,30.0140296 55.8912135,30.2369 54.0224494,30.4382519 C53.1942472,30.5443074 51.6743596,30.7226037 51.3209326,30.7794741 C51.119191,30.7963815 51.0039101,30.9039741 51.0039101,31.1022519 C51.0039101,31.3082148 51.0888539,31.4065852 51.3194157,31.4373259 C51.6409888,31.4865111 53.4308764,31.690937 54.0087978,31.7585667 C55.0084045,31.8676963 57.4065506,32.2043074 59.2828989,32.4732889 C60.5737416,32.6669556 61.2699775,33.1741778 61.6461573,34.7096778 C61.8478989,35.5412148 62.0299213,36.1514185 62.1573371,36.7939 C62.2665506,37.3180296 62.4531236,38.1526407 62.5016629,38.3155667 C62.5684045,38.5553444 62.6806517,38.6552519 62.8338539,38.6552519 C62.9840225,38.6552519 63.123573,38.5830111 63.1887978,38.3048074 C63.217618,38.1526407 63.4451461,37.1166778 63.5012697,36.8323259 C63.6377865,36.2221222 63.8167753,35.4781963 64.0200337,34.7035296 C64.400764,33.3186593 64.8042472,32.8590852 66.4287978,32.4732889 C67.7090225,32.1704926 70.0555955,31.8676963 71.1917191,31.7078444 C73.9933483,31.2959185 74.7214382,31.4373259 76.4688539,31.6724926 M62.2453146,41.7508444 L62.2453146,41.7508444 C62.9734045,41.8615111 65.5353708,42.2426963 66.5835169,42.4409741 C67.464809,42.6269556 67.9031798,42.9066963 68.3354831,43.9672519 C68.4765506,44.3161593 68.690427,45.0708444 68.8026742,45.5027519 C68.9558764,46.0560852 69.1591348,46.8937704 69.1834045,46.9675481 C69.2076742,47.0674556 69.303236,47.1796593 69.4761573,47.1796593 C69.635427,47.1796593 69.7370562,47.0613074 69.7673933,46.9644741 C69.8189663,46.838437 70.040427,45.9899926 70.1936292,45.4812333 C70.3043596,45.0416407 70.518236,44.3407519 70.6759888,43.9672519 C70.9368876,43.3462889 71.2690787,42.6807519 72.3232921,42.4732519 C73.3775056,42.2841963 75.7968876,41.9706407 76.998236,41.8230852 C77.9037978,41.7216407 79.8726742,41.4618815 80.1002022,41.440363 C80.341382,41.398863 80.4399775,41.2574556 80.4399775,41.0991407 C80.4399775,40.9254556 80.341382,40.7917333 80.0850337,40.7656037 C79.7164382,40.737937 77.9037978,40.5442704 76.998236,40.4320667 C75.6103146,40.2645296 73.2212697,39.9171593 72.4218876,39.7342519 C71.5815506,39.5405852 71.1780674,39.3008074 70.7988539,38.5123074 C70.5834607,38.0742519 70.4287416,37.663863 70.278573,37.0936222 C70.1936292,36.7447148 69.8508202,35.588863 69.800764,35.4013444 C69.7507079,35.1754 69.6232921,35.1077704 69.4867753,35.1077704 C69.3396404,35.1077704 69.219809,35.1569556 69.1591348,35.4105667 C69.0787416,35.6534185 68.8026742,36.7447148 68.690427,37.1166778 C68.5508764,37.5409 68.4355955,37.9605111 68.2035169,38.493863 C67.910764,39.1179 67.5042472,39.5482704 66.6168876,39.7342519 C65.2547528,40.0093815 62.812618,40.4013259 62.2362135,40.4935481 C60.0337416,40.8009556 59.5164944,40.8578259 58.0057079,40.7025852 C56.8483483,40.5934556 54.2575618,40.1846037 52.5435169,39.9171593 C51.4999213,39.7573074 50.4320562,39.6727704 49.8556517,38.6906037 C49.5158764,38.0973074 49.3262697,37.5239926 49.104809,36.7939 C48.9045843,36.1683259 48.5966629,35.0678074 48.5329551,34.7988259 C48.4631798,34.5805667 48.3736854,34.4576037 48.1916629,34.4576037 C48.0005393,34.4576037 47.9080112,34.5805667 47.8412697,34.8126593 C47.7608764,35.0539741 47.4317191,36.2159741 47.277,36.7739185 C47.028236,37.5885481 46.8158764,38.2464 46.5079551,38.6906037 C45.916382,39.5482704 45.365764,39.6635481 43.9505393,39.904863 C42.4594719,40.156937 40.6058764,40.3721222 39.166382,40.5196778 C37.8982921,40.6656963 37.0989101,40.7563815 36.6317191,40.8086407 C36.4011573,40.8332333 36.2646404,40.9131593 36.2646404,41.1421778 C36.2646404,41.3727333 36.4011573,41.4618815 36.6317191,41.4864741 C37.0594719,41.5464185 38.2987416,41.6862889 39.1754831,41.7800481 C40.6392472,41.9352889 41.9589101,42.0644 43.9505393,42.3871778 C45.8784607,42.6899741 46.218236,42.9466593 46.8340787,44.4252889 C47.142,45.1569185 47.2572809,45.6994926 47.3846966,46.2728074 C47.5242472,46.8937704 47.806382,48.1387704 47.8518876,48.3969926 C47.8700899,48.5875852 47.9777865,48.7397519 48.1810449,48.7397519 C48.3827865,48.7397519 48.481382,48.6014185 48.5162697,48.3846963 C48.5678427,48.0988074 48.8605955,46.7815667 49.0001461,46.2728074 C49.1396966,45.6994926 49.2746966,45.1231037 49.5280112,44.4252889 C50.1484045,42.8313815 50.6535169,42.6592333 52.5283483,42.3671963 C53.9708764,42.1443259 56.6511573,41.733937 58.0057079,41.5771593 C59.5164944,41.4296037 60.1247528,41.4296037 62.2453146,41.7508444 M49.5280112,51.1974741 L49.5280112,51.1974741 C74.1328989,51.1974741 94.6711011,40.4935481 94.6711011,27.288863 C94.6711011,13.9858074 73.9099213,3.38486296 49.5280112,3.38486296 C24.939809,3.38486296 3.93289888,13.9858074 3.93289888,27.288863 C3.93289888,40.4935481 24.0964382,51.1974741 49.5280112,51.1974741 M0.334921348,27.288863 C0.334921348,12.517937 22.9360449,0.558251852 49.5052584,0.558251852 C76.0729551,0.558251852 98.2630112,12.517937 98.2630112,27.288863 C98.2630112,42.0505667 76.0729551,54.0240852 49.5052584,54.0240852 C22.572,54.0240852 0.334921348,42.0505667 0.334921348,27.288863" mask="url(#brand-subaru-f)"/>
    </g>
  </g>
</svg>
