<svg xmlns="http://www.w3.org/2000/svg" xmlns:xlink="http://www.w3.org/1999/xlink" width="135" height="106" viewBox="0 0 135 106">
  <defs>
    <polygon id="brand-opel-a" points="0 0 135 0 135 106 0 106"/>
  </defs>
  <g fill="none" fill-rule="evenodd">
    <mask id="brand-opel-b" fill="#fff">
      <use xlink:href="#brand-opel-a"/>
    </mask>
    <path fill="#FEFEFE" d="M113.759135,55.6481183 C113.742586,55.9424535 113.699143,56.2347589 113.692937,56.5290941 C113.690868,56.7402035 113.614326,56.8051603 113.399181,56.790951 C112.650309,56.7381736 111.903506,56.7056952 111.154634,56.6590076 C109.387959,56.5493931 107.623353,56.4397786 105.856678,56.3261043 C103.732117,56.192131 101.607555,56.0540979 99.4850627,55.9201247 C97.927327,55.8226896 96.3716599,55.7293142 94.8159928,55.6318791 C92.6004085,55.4938461 90.3868929,55.3517532 88.1733773,55.2137201 C86.5721987,55.1142551 84.9689514,55.0188499 83.3698415,54.9214148 C81.1997687,54.7854116 79.0296959,54.6473785 76.8616918,54.5093455 C76.2638357,54.4728073 75.6639109,54.4362691 75.0681235,54.4017609 C75.0639861,54.3753722 75.05778,54.3469536 75.0557113,54.3225948 C75.1860398,54.2292195 75.3163683,54.1358442 75.4508342,54.0444988 C80.7798213,50.4617286 86.1088085,46.8789583 91.4357269,43.2941582 C91.5474371,43.219052 91.6632846,43.1500355 91.7687886,43.0688395 C92.0770258,42.8354012 92.1618428,42.5146773 92.0790945,42.1594452 C91.9922089,41.7940635 91.7232771,41.584984 91.3529787,41.524087 C91.1647264,41.4916087 90.9661306,41.505818 90.7716722,41.505818 L23.2366898,41.505818 L22.707101,41.505818 C22.6533147,41.345456 22.7153758,41.225692 22.7505439,41.1018682 C24.868899,33.6744709 28.6649749,27.1828567 34.099466,21.6229657 C39.4574151,16.1402108 45.8104118,12.1778496 53.1605249,9.77039042 C56.025683,8.83460738 58.9570397,8.19518946 61.9545949,7.83386759 C64.8528523,7.48675501 67.7573158,7.3933797 70.663848,7.6105788 C80.5315766,8.35149162 89.2801351,11.8408865 96.8929739,18.0239563 C103.591445,23.4661132 108.397049,30.2337936 111.293238,38.2904593 C112.317247,41.1404363 113.020607,44.0675494 113.430211,47.0636791 C113.819128,49.915686 113.928769,52.7758124 113.759135,55.6481183 M112.122789,65.1378921 C109.900998,72.7276813 105.94977,79.3268801 100.285652,84.9334588 C94.9918329,90.1746558 88.7712333,93.9665055 81.6238534,96.2785595 C78.6821532,97.2285518 75.6742544,97.86391 72.5980883,98.2110225 C69.6232888,98.5439258 66.6422832,98.600763 63.6633463,98.340936 C54.0686869,97.5005582 45.5476861,94.0517613 38.1251683,88.0412329 C31.2570637,82.477282 26.3707797,75.5451799 23.4911407,67.2631955 C22.5560855,64.5715505 21.9065117,61.812919 21.517595,58.9933905 C21.1141973,56.0845464 20.9983497,53.163523 21.186602,50.2323501 C21.2031516,49.9684633 21.2465944,49.7045766 21.2486632,49.4406898 C21.2507319,49.2275505 21.3314114,49.1625938 21.5444881,49.176803 C22.2188864,49.2255206 22.8932846,49.257999 23.5656141,49.2985969 C24.7613263,49.3737032 25.9591072,49.4528692 27.156888,49.5259455 C29.4303962,49.6700683 31.705973,49.8081014 33.9815498,49.9461344 C35.5516978,50.0435695 37.1239145,50.1369449 38.6940625,50.23438 C40.9675706,50.3744429 43.2431474,50.5165358 45.5187242,50.6545689 C47.1033532,50.752004 48.6900508,50.8453793 50.2767485,50.9428144 C52.5357756,51.0808475 54.7968715,51.2229404 57.0558987,51.3609734 C57.8792437,51.4117209 58.7025888,51.4523189 59.5259339,51.5010364 C59.6583311,51.509156 59.7969344,51.4949467 59.9210568,51.5781725 C59.8445146,51.7182355 59.6997052,51.7730428 59.5797202,51.8542387 C54.2403895,55.475577 48.8989902,59.0948854 43.5596595,62.7141937 C43.4251936,62.8075691 43.2865902,62.8968846 43.1666053,63.008529 C42.9038796,63.2582064 42.8480245,63.5748706 42.9597347,63.9037141 C43.0735135,64.2345875 43.3217583,64.4396072 43.6879192,64.4700556 C43.8823776,64.4862948 44.0789047,64.4842649 44.2733631,64.4842649 L111.630437,64.4842649 C112.311041,64.4842649 112.315179,64.4862948 112.122789,65.1378921 M134.895107,58.6503377 C134.708923,58.2727766 134.390342,58.0941456 133.955914,58.0799363 C133.432531,58.0616672 132.909149,58.0170094 132.385766,57.9845311 C130.186731,57.846498 127.985628,57.7084649 125.786593,57.568402 C124.379873,57.4790864 122.975222,57.387741 121.566433,57.3065451 C121.380249,57.2963956 121.29957,57.247678 121.316119,57.048748 C121.357493,56.61029 121.388524,56.1677722 121.405074,55.7272843 C121.518852,52.9605332 121.473341,50.1978418 121.175447,47.4412401 C120.898241,44.8490602 120.445194,42.2873287 119.774933,39.7661953 C117.220081,30.1749265 112.354484,21.8787328 105.08505,15.0014379 C95.5110781,5.93997263 84.0338962,0.999200551 70.7631459,0.108075267 C67.6890485,-0.0989743439 64.6190885,0.000490665034 61.5553346,0.329334164 C58.9591084,0.607430209 56.391844,1.03776862 53.8721598,1.707635 C39.8711563,5.43858779 29.0290672,13.3612802 21.3562359,25.4330845 C18.2800698,30.2743915 16.145165,35.5115288 14.8480862,41.0754796 C14.7487883,41.505818 14.7467196,41.505818 14.3040165,41.505818 L8.36476098,41.505818 C7.19594198,41.505818 6.02505427,41.5017582 4.85623527,41.5078479 C4.13632551,41.5098778 3.54881295,41.7859439 3.12059077,42.3644649 C2.1607111,43.6635997 1.20496884,44.9627345 0.24095175,46.2578095 C-0.0093617,46.5968025 -0.0755602982,46.9560945 0.0940736097,47.3356854 C0.276119755,47.7457248 0.625731102,47.9081167 1.06429681,47.9324755 C1.9931459,47.9872827 2.91992627,48.0481797 3.84877535,48.1029869 C6.97665912,48.2917674 10.1045429,48.4785181 13.2324267,48.6652687 C13.6316869,48.6875976 13.6440992,48.6896275 13.6109999,49.1057566 C13.5179081,50.2810676 13.4703279,51.4584085 13.4661905,52.6357495 C13.4558469,55.136584 13.6109999,57.6313288 13.9523364,60.1138942 C14.3971082,63.3576715 15.1314989,66.5324321 16.1844704,69.6381763 C18.9772238,77.8694133 23.5221713,85.0410434 29.9020612,91.047512 C39.7201408,100.289638 51.4662545,105.24665 65.0535168,105.932755 C69.9418696,106.180403 74.7867795,105.741945 79.5634221,104.651889 C89.8469606,102.303297 98.7010231,97.4335716 106.078029,90.0345928 C113.138524,82.9543081 117.807593,74.5586494 120.095583,64.900394 C120.192812,64.4862948 120.19488,64.4842649 120.654133,64.4842649 L125.42457,64.4842649 C126.835427,64.4842649 128.246285,64.4396072 129.655074,64.4984742 C130.774244,64.5451619 131.562421,64.1574513 132.183033,63.2379075 C132.993966,62.0362078 133.891784,60.8933751 134.756503,59.7282136 C135.006817,59.3892206 135.083359,59.0319585 134.895107,58.6503377" mask="url(#brand-opel-b)"/>
  </g>
</svg>
