<svg xmlns="http://www.w3.org/2000/svg" xmlns:xlink="http://www.w3.org/1999/xlink" width="135" height="79" viewBox="0 0 135 79">
  <defs>
    <polygon id="brand-hyundai-a" points="1.465 .758 96.347 .758 96.347 49.305 1.465 49.305"/>
    <polygon id="brand-hyundai-c" points="0 .973 17.646 .973 17.646 20.392 0 20.392"/>
    <polygon id="brand-hyundai-e" points=".634 .973 21.227 .973 21.227 20.392 .634 20.392"/>
    <polygon id="brand-hyundai-g" points="1.112 .973 18.753 .973 18.753 20.392 1.112 20.392"/>
    <polygon id="brand-hyundai-i" points="1.063 .973 18.71 .973 18.71 20.392 1.063 20.392"/>
    <polygon id="brand-hyundai-k" points="1.02 .974 18.661 .974 18.661 20.392 1.02 20.392"/>
    <polygon id="brand-hyundai-m" points=".771 .973 18.408 .973 18.408 20.392 .771 20.392"/>
    <polygon id="brand-hyundai-o" points="0 79.242 134.278 79.242 134.278 1.568 0 1.568"/>
  </defs>
  <g fill="none" fill-rule="evenodd" transform="translate(0 -1)">
    <g transform="translate(18.837 .81)">
      <mask id="brand-hyundai-b" fill="#fff">
        <use xlink:href="#brand-hyundai-a"/>
      </mask>
      <path fill="#FEFEFE" d="M31.5182616,6.31639216 C32.5072151,6.12345098 33.1570988,6.12815686 33.3894244,6.37756863 C33.5307035,6.536 33.5762267,6.79796078 33.3878547,7.12423529 C33.2811105,7.29992157 33.175936,7.45364706 32.9750058,7.69207843 C24.5861686,17.5744314 18.1987849,32.148549 16.382564,36.3540392 C16.2459942,36.6473725 16.1062849,36.9312941 15.9979709,37.1242353 C15.8331453,37.4222745 15.6055291,37.6638431 15.2052384,37.6905098 C14.9823314,37.7046275 14.6777965,37.6512941 14.2131453,37.3689412 C8.64361047,33.9383529 5.33611047,29.6622745 5.33611047,25.028549 C5.33611047,16.6552157 16.112564,9.45992157 31.5182616,6.31639216 M40.1190174,12.6191373 C40.9070407,10.7869804 42.2727384,6.86854902 45.3997151,5.31403922 C46.3447151,4.84345098 47.5173314,4.616 48.5675058,4.58776471 C48.8029709,4.57992157 48.9677965,4.58776471 49.0352965,4.58776471 C57.7945988,4.58776471 65.9448314,5.7987451 72.7701802,7.88188235 C72.8219826,7.896 72.9836686,7.9587451 73.0291919,7.976 C73.6602384,8.18462745 73.9820407,8.47639216 73.9836105,8.83403922 C73.9836105,9.14776471 73.8203547,9.37992157 73.5927384,9.60423529 C73.4969826,9.69835294 73.352564,9.82227451 73.1594826,9.98384314 C71.5881453,11.3030588 66.8427384,14.7320784 57.9091919,18.1469804 C54.769657,19.3454118 50.8468081,20.8356078 46.743436,21.7030588 C44.3322733,22.216 35.4002965,23.5697255 40.1190174,12.6191373 M81.8057616,12.9265882 C81.9737267,12.6301176 82.1997733,12.388549 82.6032035,12.3603137 C82.8276802,12.3461961 83.1337849,12.3979608 83.5968663,12.683451 C89.1648314,16.1093333 92.4660523,20.3854118 92.4660523,25.0207059 C92.4660523,33.3971765 81.6943081,40.5877647 66.2933198,43.736 C65.3027965,43.9273725 64.6482035,43.9242353 64.4205872,43.6732549 C64.2714593,43.5148235 64.2306453,43.2528627 64.4205872,42.9218824 C64.5210523,42.7493333 64.630936,42.5956078 64.8350058,42.3556078 C73.2207035,32.4732549 79.609657,17.9038431 81.4258779,13.6952157 C81.5655872,13.4050196 81.702157,13.1163922 81.8057616,12.9265882 M57.8354128,37.3940392 C57.0473895,39.2293333 55.6864012,43.1461961 52.5562849,44.7022745 C51.6081453,45.1712941 50.4386686,45.4003137 49.3884942,45.4269804 C49.1545988,45.4332549 48.9866337,45.4301176 48.9159942,45.4301176 C40.1551221,45.4301176 32.0080291,44.2175686 25.18425,42.1375686 C25.1293081,42.1203137 24.9723314,42.0591373 24.9236686,42.0418824 C24.2926221,41.8316863 23.9708198,41.5399216 23.9708198,41.1838431 C23.9708198,40.8654118 24.1340756,40.6316863 24.3601221,40.4120784 C24.4558779,40.3132549 24.603436,40.1924706 24.7933779,40.0293333 C26.3678547,38.7148235 31.1116919,35.281098 40.0530872,31.8661961 C43.186343,30.6693333 47.1060523,29.1775686 51.2157035,28.3101176 C53.622157,27.8018824 62.5541337,26.4418824 57.8354128,37.3940392 M48.9065756,49.3046275 C75.1122733,49.3046275 96.3465174,38.4387451 96.3465174,25.0316863 C96.3465174,11.6230588 75.1122733,0.757176471 48.9065756,0.757176471 C22.7055872,0.757176471 1.46506395,11.6230588 1.46506395,25.0316863 C1.46506395,38.4387451 22.7055872,49.3046275 48.9065756,49.3046275" mask="url(#brand-hyundai-b)"/>
    </g>
    <g transform="translate(0 58.85)">
      <mask id="brand-hyundai-d" fill="#fff">
        <use xlink:href="#brand-hyundai-c"/>
      </mask>
      <polygon fill="#FEFEFE" points="13.018 .973 13.018 8.374 4.623 8.374 4.623 .973 0 .973 0 20.393 4.623 20.393 4.623 12.587 13.018 12.587 13.018 20.393 17.646 20.393 17.646 .973 17.411 .973" mask="url(#brand-hyundai-d)"/>
    </g>
    <g transform="translate(18.837 58.85)">
      <mask id="brand-hyundai-f" fill="#fff">
        <use xlink:href="#brand-hyundai-e"/>
      </mask>
      <polygon fill="#FEFEFE" points="15.765 .973 10.931 8.664 6.094 .973 .634 .973 8.621 13.67 8.621 20.393 13.244 20.393 13.244 13.67 21.227 .973 20.804 .973" mask="url(#brand-hyundai-f)"/>
    </g>
    <g transform="translate(40.814 58.85)">
      <mask id="brand-hyundai-h" fill="#fff">
        <use xlink:href="#brand-hyundai-g"/>
      </mask>
      <path fill="#FEFEFE" d="M14.1313605,0.973333333 L14.1313605,15.2101961 C14.1313605,15.7513725 13.7247907,16.187451 13.1471163,16.187451 L5.73310465,16.187451 L5.73310465,0.973333333 L1.1117093,0.973333333 L1.1117093,20.3929412 L14.7765349,20.3929412 C15.9946744,20.3929412 16.9742093,20.0305882 17.685314,19.3247059 C18.3948488,18.612549 18.7527558,17.6368627 18.7527558,16.4258824 L18.7527558,0.973333333 L18.5188605,0.973333333 L14.1313605,0.973333333 Z" mask="url(#brand-hyundai-h)"/>
    </g>
    <g transform="translate(62.79 58.85)">
      <mask id="brand-hyundai-j" fill="#fff">
        <use xlink:href="#brand-hyundai-i"/>
      </mask>
      <path fill="#FEFEFE" d="M14.73525,0.973333333 L1.06257558,0.973333333 L1.06257558,20.3929412 L5.68711047,20.3929412 L5.68711047,5.17882353 L13.1089709,5.17882353 C13.7054826,5.17882353 14.0900756,5.64627451 14.0900756,6.15137255 L14.0900756,20.3929412 L18.7099012,20.3929412 L18.7099012,4.94666667 C18.7099012,3.73098039 18.3488547,2.75686275 17.6408895,2.04941176 C16.9266453,1.33254902 15.95025,0.973333333 14.73525,0.973333333" mask="url(#brand-hyundai-j)"/>
    </g>
    <g transform="translate(84.767 58.85)">
      <mask id="brand-hyundai-l" fill="#fff">
        <use xlink:href="#brand-hyundai-k"/>
      </mask>
      <path fill="#FEFEFE" d="M14.0393721,6.18619608 L14.0393721,15.1822745 C14.0393721,15.7077647 13.6532093,16.1877647 13.0488488,16.1877647 L5.63954651,16.1877647 L5.63954651,5.17756863 L13.0237326,5.17756863 C13.628093,5.17756863 14.0393721,5.60580392 14.0393721,6.18619608 M14.6908256,0.973647059 L1.01972093,0.973647059 L1.01972093,20.3932549 L14.6908256,20.3932549 C15.902686,20.3932549 16.8790814,20.030902 17.590186,19.3250196 C18.3012907,18.616 18.6607674,17.6387451 18.6607674,16.4246275 L18.6607674,4.94698039 C18.6607674,3.73129412 18.3012907,2.75403922 17.5886163,2.04345098 C16.8759419,1.33286275 15.902686,0.973647059 14.6908256,0.973647059" mask="url(#brand-hyundai-l)"/>
    </g>
    <g transform="translate(106.744 58.85)">
      <mask id="brand-hyundai-n" fill="#fff">
        <use xlink:href="#brand-hyundai-m"/>
      </mask>
      <path fill="#FEFEFE" d="M13.7878953,5.17835294 L13.7878953,10.1822745 L5.38336047,10.1822745 L5.38336047,6.16501961 C5.38336047,5.68658824 5.75539535,5.17835294 6.36917442,5.17835294 L13.7878953,5.17835294 Z M4.74132558,0.972862745 C3.52789535,0.972862745 2.54993023,1.33364706 1.84039535,2.04894118 C1.1292907,2.75952941 0.771383721,3.73364706 0.771383721,4.94776471 L0.771383721,20.3924706 L5.38336047,20.3924706 L5.38336047,14.3861961 L13.7878953,14.3861961 L13.7878953,20.3924706 L18.4077209,20.3924706 L18.4077209,0.972862745 L4.74132558,0.972862745 Z" mask="url(#brand-hyundai-n)"/>
    </g>
    <mask id="brand-hyundai-p" fill="#fff">
      <use xlink:href="#brand-hyundai-o"/>
    </mask>
    <polygon fill="#FEFEFE" points="129.652 79.242 134.278 79.242 134.278 59.822 129.652 59.822" mask="url(#brand-hyundai-p)"/>
  </g>
</svg>
