<svg xmlns="http://www.w3.org/2000/svg" xmlns:xlink="http://www.w3.org/1999/xlink" width="134" height="74" viewBox="0 0 134 74">
  <defs>
    <polygon id="brand-honda-a" points="0 0 133.956 0 133.956 73.509 0 73.509"/>
  </defs>
  <g fill="none" fill-rule="evenodd">
    <mask id="brand-honda-b" fill="#fff">
      <use xlink:href="#brand-honda-a"/>
    </mask>
    <path fill="#FEFEFE" d="M66.8666134,0.000139622642 C72.4628505,0.000139622642 83.7638814,0.0504037736 87.7679536,0.546064151 C92.6223866,1.14783774 98.2742938,2.2983283 98.5025412,10.8376491 C98.7321804,19.3769698 98.3884175,30.3261774 97.0175412,37.6605547 C95.9932113,42.5850453 95.1859948,48.3877623 83.3129536,48.935083 C79.198933,49.2631962 69.4914588,49.4796113 66.9737784,49.4796113 C64.4658402,49.4796113 54.758366,49.2631962 50.6443454,48.935083 C38.7657371,48.3877623 37.9626959,42.5850453 36.9397577,37.6605547 C35.5674897,30.3261774 35.2251186,19.3769698 35.453366,10.8376491 C35.6816134,2.2983283 41.3335206,1.14783774 46.1893454,0.546064151 C50.1948093,0.0504037736 61.266201,0.000139622642 66.8666134,0.000139622642 C66.8666134,0.000139622642 61.266201,0.000139622642 66.8666134,0.000139622642 L66.8666134,0.000139622642 Z M66.9737784,2.07493208 C72.1190876,2.07493208 81.8279536,2.2983283 85.0248093,2.51334717 C88.2244485,2.73395094 92.2800155,3.06346038 94.1630567,5.19968679 C95.421201,6.61964906 95.9932113,7.88044151 96.2214588,12.6988189 C96.4427474,17.3999132 95.9932113,28.4664038 94.8464072,34.9239509 C93.7023866,41.3801019 93.9932629,46.4735358 81.7138299,46.7444038 C77.1460979,46.9622151 69.7238814,47.072517 66.9737784,47.072517 C64.2375928,47.072517 56.811201,46.9622151 52.2406856,46.7444038 C39.9654278,46.4735358 40.2493454,41.3801019 39.1095,34.9239509 C37.9626959,28.4664038 37.5159433,17.3999132 37.7386237,12.6988189 C37.9626959,7.88044151 38.5374897,6.61964906 39.7970258,5.19968679 C41.6731082,3.06346038 45.7314588,2.73395094 48.9366649,2.51334717 C52.1307371,2.2983283 61.8409948,2.07493208 66.9737784,2.07493208 C66.9737784,2.07493208 61.8409948,2.07493208 66.9737784,2.07493208 L66.9737784,2.07493208 Z M70.5157887,29.5568566 C76.2275412,29.5568566 76.5782629,25.6153094 77.7167165,22.2224792 L82.2844485,5.14244151 C82.9705825,5.14244151 83.541201,5.25134717 85.0248093,5.25134717 C85.0248093,8.64696981 84.2287268,23.867234 82.7409433,44.0105925 C80.9135722,44.1181019 78.1732113,44.3387057 77.0347577,44.3387057 L74.7453247,37.2221396 C73.7196031,34.9239509 72.9207371,33.0627811 67.6626959,33.0627811 L66.9737784,33.0627811 C61.7240876,33.0627811 60.9266134,34.9239509 59.9008918,37.2221396 L57.6170258,44.3387057 C56.4688299,44.3387057 53.7312526,44.1181019 51.9010979,44.0105925 C50.4160979,23.867234 49.6186237,8.64696981 49.6186237,5.25134717 C51.0980567,5.25134717 51.6728505,5.14244151 52.3548093,5.14244151 L56.9267165,22.2224792 C58.0735206,25.6153094 58.4131082,29.5568566 64.1234691,29.5568566 L70.5157887,29.5568566 Z M40.8074381,70.7162151 C43.7871804,70.7162151 46.2004794,68.514366 46.2004794,65.7931208 C46.2004794,63.0732717 43.7871804,60.8658377 40.8074381,60.8658377 C37.8332629,60.8658377 35.4171804,63.0732717 35.4171804,65.7931208 C35.4171804,68.514366 37.8332629,70.7162151 40.8074381,70.7162151 L40.8074381,73.5086679 C34.2021804,73.5086679 28.8411495,71.1378755 28.8411495,65.7931208 C28.8411495,60.5070075 34.2021804,58.0733849 40.8074381,58.0733849 C47.4182629,58.0733849 52.7779021,60.4455736 52.7779021,65.7931208 C52.7779021,71.252366 47.4182629,73.5086679 40.8074381,73.5086679 L40.8074381,70.7162151 Z M97.5853763,69.8547434 C99.5324381,69.8547434 101.352851,68.1471585 101.352851,65.7791585 C101.352851,63.4223283 99.5324381,61.4033849 97.5853763,61.4033849 L92.1617165,61.4033849 L92.1617165,69.8547434 L86.3789845,69.8547434 L86.3789845,61.4033849 L83.4897062,61.4033849 L83.4897062,58.6974981 L97.7621289,58.6974981 C103.9095,58.6974981 106.699964,61.5904792 106.699964,65.7791585 C106.699964,69.9720264 103.9095,72.5494604 97.7621289,72.5494604 L83.4897062,72.5494604 L83.4897062,69.8547434 L97.5853763,69.8547434 Z M119.057335,61.4033849 L121.683572,65.3700642 L116.553572,65.3700642 L115.064397,67.6682528 L123.112902,67.6682528 L124.180376,69.2571585 C124.364088,69.5866679 124.273624,69.8687057 123.768418,69.8687057 L121.381562,69.8547434 L121.381562,72.5368943 L133.956046,72.5494604 L133.956046,69.8547434 L130.739706,69.8547434 L123.529036,58.6974981 L111.669912,58.7100642 L111.669912,61.4033849 L115.781149,61.4033849 L110.294861,69.8547434 L107.369397,69.8547434 L107.374964,72.5494604 L116.630119,72.5494604 L116.616201,69.8547434 L114.593985,69.8547434 C114.268314,69.8547434 113.942644,69.6564792 114.177851,69.1817623 L119.057335,61.4033849 Z M54.8029021,58.6974981 L54.8029021,61.4033849 L57.6685206,61.4033849 L57.6685206,69.8547434 L54.8029021,69.8547434 L54.8029021,72.5494604 L63.9856856,72.5494604 L63.9856856,69.8547434 L61.1242423,69.8547434 L61.1242423,62.2941774 L70.2109948,72.5494604 L78.2845515,72.5494604 L78.2845515,61.7161396 L81.2044485,61.7161396 L81.2044485,58.6974981 L71.9673866,58.6974981 L71.9673866,61.7161396 L74.8246546,61.7161396 L74.8246546,68.9011208 L65.710067,58.6974981 L54.8029021,58.6974981 Z M-0.000139175258,58.6974981 L-0.000139175258,61.4033849 L3.16053093,61.4033849 L3.16053093,69.8547434 L0.299087629,69.8547434 L0.299087629,72.5494604 L11.7977474,72.5494604 L11.7977474,69.8547434 L8.94187113,69.8547434 L8.94187113,66.9673472 L18.4781598,66.9673472 L18.4781598,69.8547434 L15.5554794,69.8547434 L15.5554794,72.5494604 L27.0569227,72.5494604 L27.0569227,69.8547434 L24.2553247,69.8547434 L24.2553247,61.4033849 L27.1153763,61.4033849 L27.1153763,58.6974981 L15.6153247,58.6974981 L15.6153247,61.4033849 L18.4781598,61.4033849 L18.4781598,64.2838 L8.94187113,64.2838 L8.94187113,61.4033849 L11.7977474,61.4033849 L11.7977474,58.6974981 L-0.000139175258,58.6974981 Z" mask="url(#brand-honda-b)"/>
  </g>
</svg>
