<svg xmlns="http://www.w3.org/2000/svg" xmlns:xlink="http://www.w3.org/1999/xlink" width="134" height="123" viewBox="0 0 134 123">
  <defs>
    <polygon id="brand-mazda-a" points="0 2.076 133.232 2.076 133.232 21.356 0 21.356"/>
    <polygon id="brand-mazda-c" points="2.112 1.565 92.744 1.565 92.744 22.94 2.112 22.94"/>
  </defs>
  <g fill="none" fill-rule="evenodd" transform="translate(0 -2)">
    <g transform="translate(0 103.08)">
      <mask id="brand-mazda-b" fill="#fff">
        <use xlink:href="#brand-mazda-a"/>
      </mask>
      <path fill="#FEFEFE" d="M60.4677857,6.06914237 L60.4677857,2.07558305 L74.7327857,2.07558305 L69.2899286,6.06914237 L60.4677857,6.06914237 Z M26.9663571,21.3557186 L26.9663571,9.6825661 C26.9663571,8.52293898 26.7177857,7.74985424 26.1563571,7.16897288 C25.5156429,6.51121017 24.6863571,6.22931186 23.3792143,6.22931186 L19.1642143,6.22931186 L19.1642143,21.3557186 L13.5842143,21.3557186 L13.5842143,6.22931186 L5.76064286,6.22931186 L5.76064286,21.3557186 L-0.0015,21.3557186 L-0.0015,2.07558305 L24.8599286,2.07558305 C28.0656429,2.07558305 30.0370714,2.53046441 31.2477857,3.54700678 C32.6042143,4.68741356 32.7885,6.41937966 32.7885,7.96554915 L32.7885,21.3557186 L26.9663571,21.3557186 Z M67.3335,21.3557186 L72.8277857,17.3642949 L81.0456429,17.3642949 L81.0456429,21.3557186 L67.3335,21.3557186 Z M96.9649286,17.3642949 C99.6027857,17.3642949 100.549929,17.1955831 101.374929,16.5783966 C102.7335,15.5661254 102.982071,14.1459559 102.982071,11.7156508 C102.982071,9.28534576 102.7335,7.86517627 101.374929,6.85290508 C100.552071,6.23785424 99.6049286,6.06914237 96.9649286,6.06914237 L90.4742143,6.06914237 L90.4742143,17.3642949 L96.9649286,17.3642949 Z M43.0677857,12.8389729 C42.0863571,12.8389729 41.0835,12.9372102 40.3913571,13.6462271 C39.9756429,14.0733458 39.7677857,14.639278 39.7677857,15.3248034 C39.7677857,16.0103288 39.9756429,16.5741254 40.3913571,17.0012441 C41.0449286,17.6696847 41.9342143,17.8063627 43.0677857,17.8063627 L51.8706429,17.8063627 L51.8706429,12.8389729 L43.0677857,12.8389729 Z M84.6992143,21.3557186 L84.6992143,4.58490508 L61.6142143,21.3557186 L42.9756429,21.3557186 C40.1406429,21.3557186 38.6063571,21.1635153 38.1456429,21.0524644 C35.4799286,20.3626678 34.3056429,17.8298542 34.3206429,15.6237864 C34.3356429,13.5800237 35.3856429,10.9425661 38.2892143,10.2378203 C39.2792143,9.99436271 40.4235,9.89398983 42.2342143,9.89398983 L51.8299286,9.89398983 L51.8299286,8.29870169 C51.8299286,6.09690508 50.0063571,5.91324407 48.2963571,5.91324407 L36.1335,5.91324407 L36.1335,2.07558305 L49.6485,2.07558305 C52.4899286,2.07558305 54.5470714,2.36388814 56.0192143,3.79687119 C57.3392143,5.08676949 57.3392143,6.52615932 57.3392143,9.14012542 L57.3392143,18.8656169 L80.2442143,2.07558305 L97.4470714,2.07558305 C100.922786,2.07558305 102.495643,2.24002373 104.179929,2.78032881 L104.194929,2.7846 C106.001357,3.42527797 106.924929,4.18768475 107.717786,5.70395593 C108.581357,7.35904068 108.679929,9.92815932 108.679929,11.7156508 C108.679929,13.5010068 108.581357,16.072261 107.717786,17.7273458 C106.924929,19.2414814 106.0035,20.0060237 104.197071,20.6467017 L104.179929,20.6509729 C102.4935,21.191278 100.920643,21.3557186 97.4470714,21.3557186 L84.6992143,21.3557186 Z M118.961357,12.8389729 C118.0035,12.8389729 116.814214,12.9308034 116.117786,13.6440915 C115.695643,14.0754814 115.494214,14.6243288 115.494214,15.3248034 C115.494214,16.0231424 115.695643,16.5719898 116.117786,16.9991085 C116.814214,17.7145322 118.0035,17.8063627 118.961357,17.8063627 L127.597071,17.8063627 L127.597071,12.8389729 L118.961357,12.8389729 Z M118.867071,21.3557186 C115.742786,21.3557186 114.197786,21.1357525 113.867786,21.0503288 C111.204214,20.3626678 110.027786,17.8298542 110.042786,15.6237864 C110.057786,13.5821593 111.107786,10.9447017 114.011357,10.2378203 C114.962786,10.0029051 116.269929,9.89398983 118.127786,9.89398983 L127.552071,9.89398983 L127.552071,8.29870169 C127.552071,6.09690508 125.730643,5.91324407 124.024929,5.91324407 L111.532071,5.91324407 L111.532071,2.07558305 L125.535643,2.07558305 C128.381357,2.07558305 130.440643,2.36388814 131.910643,3.79687119 C133.232786,5.09104068 133.232786,6.53043051 133.232786,9.14012542 L133.232786,21.3557186 L118.867071,21.3557186 Z" mask="url(#brand-mazda-b)"/>
    </g>
    <g transform="translate(19.286 .57)">
      <mask id="brand-mazda-d" fill="#fff">
        <use xlink:href="#brand-mazda-c"/>
      </mask>
      <path fill="#FEFEFE" d="M71.6905714,11.4978203 C68.5084286,10.0520237 61.8934286,7.04937966 47.3562857,7.04937966 L47.3434286,7.04937966 L47.0134286,7.04937966 C35.4312857,7.04937966 27.6505714,9.57151525 24.8455714,10.654261 C19.3341429,12.875278 14.5212857,16.5164644 10.7884286,21.191278 C8.90057143,19.9334136 5.01342857,16.7855492 3.57985714,15.1582271 C3.47914286,15.0450407 8.05628571,17.0226 8.05628571,17.0226 C8.05628571,17.0226 10.1434286,14.8549729 13.3684286,12.497278 C16.3362857,10.3275153 21.5755714,8.40121017 21.6291429,8.38412542 C28.4262857,5.94527797 36.9784286,4.74721017 47.3477143,4.74721017 C54.0334286,4.81127797 58.3277143,5.0846339 64.9877143,6.39588814 C76.2527143,8.7386339 82.422,13.2746339 86.6284286,17.2276169 C87.1555714,17.0524983 89.2684286,16.2452441 91.302,15.5447695 C90.7812857,16.3157186 87.4062857,19.3653458 84.1705714,21.6077186 C82.8355714,19.7070407 78.8948571,14.9425322 71.6905714,11.4978203 M88.9427143,11.9420237 C80.0284286,4.85612542 66.7855714,1.56517627 47.1291429,1.56517627 C39.5862857,1.56517627 33.1212857,2.07344746 27.2927143,3.11775254 C23.052,3.83317627 19.3748571,4.8326339 16.017,6.18446441 C12.0612857,7.70927797 8.67771429,9.56724407 5.64128571,11.8758203 C4.55485714,12.7001593 3.357,13.7764983 2.112,15.0407695 C2.12057143,15.0578542 2.892,16.2068034 6.132,19.0065661 C7.602,20.3349051 10.4734286,22.2911085 11.0048571,22.5794136 C12.6141429,20.6061254 14.6434286,18.2527017 16.7948571,16.5100576 C19.407,14.3915492 22.362,12.6980237 25.332,11.5597525 C28.0941429,10.5026339 35.577,7.97836271 46.8548571,8.05310847 C61.3148571,7.98904068 67.977,10.8977186 71.2405714,12.4075831 C73.3898571,13.3835492 79.737,16.8474814 83.9391429,22.9403288 C84.582,22.5687356 87.0891429,20.7705661 88.7348571,19.2841932 C91.9941429,16.3605661 92.4077143,15.9526678 92.7441429,15.4935153 C92.5148571,15.247922 90.3698571,12.9970068 88.9427143,11.9420237" mask="url(#brand-mazda-d)"/>
    </g>
    <path fill="#FEFEFE" d="M120.323357,59.5480271 C117.981214,70.0017559 111.884786,77.9781966 102.644786,83.2915525 C96.2526429,86.9690441 83.8283571,91.1355864 69.0062143,91.2573153 C64.4226429,91.2914847 52.7655,91.3769085 41.9783571,88.1906034 C34.8533571,86.0870441 29.3397857,83.5243322 24.9533571,79.866061 C20.3976429,76.0647051 16.9840714,71.6931458 14.8733571,66.4139593 C14.8733571,66.4139593 14.7619286,66.1256542 14.6847857,65.937722 C14.6612143,65.8501627 14.7255,65.9142305 14.7255,65.9142305 L14.9697857,66.3285356 C15.3962143,66.9628068 15.8676429,67.5479593 16.4847857,67.8362644 C17.1919286,68.1672814 18.1326429,68.536739 18.8569286,68.8271797 L19.0433571,68.8976542 C19.7783571,69.1923661 20.6847857,70.1512475 21.2697857,70.8965695 C21.8740714,71.6632475 24.5655,75.7785356 27.4262143,78.2430102 C33.6962143,83.4858915 41.3976429,86.5269763 50.2455,87.8296881 C58.0240714,88.9743661 63.4905,89.0683322 66.4862143,89.0832814 C71.0483571,89.1089085 76.6090714,88.7266373 80.8733571,87.9749085 C87.6897857,86.7704339 95.0162143,85.1751458 101.796214,80.6370102 C105.919071,77.8799593 109.519071,74.3711797 111.957643,70.1491119 C113.187643,68.0113831 115.302643,63.8362983 116.181214,59.9174847 C117.203357,55.3772136 117.672643,51.1786373 117.651214,46.5016881 C117.619071,39.294061 116.571214,34.1131119 114.016929,28.2103322 C113.9655,28.0950102 113.787643,27.6999254 113.639786,27.4372475 C113.697643,27.0421627 113.772643,26.7688068 113.821929,25.560061 C114.076929,22.7282644 113.699786,19.764061 113.699786,19.764061 L113.9055,20.0929424 C115.467643,22.3844339 118.336929,26.6449424 120.312643,33.6304678 C123.479786,44.8401966 121.124786,56.2378576 120.323357,59.5480271 M19.6219286,29.2994847 C20.5219286,32.0287729 21.4369286,34.8477559 23.1490714,38.0233831 C23.0419286,38.4675864 22.1805,43.7403661 22.5190714,51.0782644 C22.8597857,56.5325695 24.2076429,61.3803661 25.5576429,64.7588746 C27.1819286,68.8143661 28.8169286,72.1202644 33.5740714,76.4704678 C33.6019286,76.5089085 33.5762143,76.5281288 33.5376429,76.5003661 C32.4662143,75.6012814 29.9762143,73.4742305 27.4797857,72.0903661 C27.0662143,71.8618576 26.5712143,71.6162644 26.0419286,71.3621288 C23.8112143,70.2921966 20.6076429,68.583722 19.7869286,65.9804339 C17.6097857,60.7290102 16.4055,54.7301288 16.4162143,46.728061 C16.2640714,43.9026712 16.8726429,35.6293831 19.6219286,29.2994847 M20.6076429,28.6545356 C26.4876429,32.6117898 29.5647857,33.555722 33.0362143,35.0613153 C38.4533571,37.209722 44.0547857,39.1701966 45.6426429,39.7446712 C52.6005,42.2604 54.8162143,44.5369424 55.7890714,45.3869085 C58.0155,47.3367051 60.8033571,50.4504 61.7247857,51.8278576 C61.7547857,51.8705695 64.6519286,56.1737898 65.5776429,58.1833831 C65.6419286,58.3072475 65.6397857,58.3585017 65.6205,58.3948068 C65.5905,58.4439254 65.5433571,58.4396542 65.4983571,58.4802305 C65.4319286,58.5400271 65.2540714,58.2837559 65.2197857,58.194061 C63.8226429,55.8854847 62.5862143,54.3393153 60.8676429,52.7397559 C58.4290714,50.4696203 55.3005,48.4578915 51.2569286,46.5123661 C49.9133571,45.8695525 47.3740714,45.1199593 44.6526429,44.5284 C42.1326429,43.9795525 39.6126429,43.3025695 37.3626429,42.7110102 C32.7555,41.3591797 27.3019286,39.4713153 23.9247857,36.9748068 C23.9247857,36.9748068 22.9476429,35.0591797 22.2426429,33.2268407 C21.8076429,32.0928407 20.6076429,28.6545356 20.6076429,28.6545356 M79.3133571,43.9539254 C83.3269286,40.7761627 91.2876429,38.0895864 95.0847857,36.7612475 C95.5390714,36.6032136 95.9333571,36.4558576 96.2655,36.3469424 C103.467643,33.9742983 112.553357,28.7335525 112.553357,28.7335525 C112.174071,29.9572475 110.571214,33.8653831 109.116214,36.7783322 C105.404786,39.6101288 101.258357,40.7633492 96.9383571,41.8845356 C95.7662143,42.192061 94.1312143,42.6405356 92.3890714,43.1509424 C89.7705,44.0009085 83.9869286,45.7670441 78.9190714,49.4125017 C75.6490714,51.7637898 73.0562143,54.4759932 71.2347857,57.3270102 C69.7240714,59.6868407 68.9569286,61.7754508 68.2626429,63.6334169 C67.9562143,64.4620271 67.8597857,64.8891458 67.5190714,65.6301966 C67.1762143,66.3861966 66.7476429,66.2922305 66.7476429,66.2922305 C66.7605,66.1491458 66.7390714,60.2143322 66.7390714,60.2143322 C66.7390714,60.2143322 66.9019286,60.1865695 67.0369286,59.9089424 C67.0862143,59.8042983 67.7890714,58.1833831 67.9455,57.8438237 C68.6419286,56.4749085 69.8376429,54.241078 71.7597857,51.7018576 C73.5405,49.3505695 75.3812143,47.0676203 79.3133571,43.9539254 M108.794786,38.4633153 C109.159071,39.2000949 109.7055,44.4963661 109.4055,49.7221627 C109.4055,49.7221627 109.379786,50.6639593 109.227643,52.2806034 C108.919071,55.6121288 108.031929,61.6644 104.806929,67.8298576 C98.8412143,79.2424678 86.6805,82.6423322 80.8433571,83.656739 C78.3469286,84.1158915 73.2983571,84.7565695 66.1283571,84.7074508 C63.6876429,84.6903661 55.1055,84.7394847 47.2219286,82.6807729 C42.4005,81.4207729 38.7297857,79.5030102 35.1233571,76.417078 C30.3940714,72.1651119 27.5569286,67.6803661 25.5405,61.1006034 C25.5405,61.1006034 23.9719286,55.7573492 23.7597857,51.0035186 C23.6162143,48.7889085 23.5047857,43.8022983 24.1969286,38.5743661 C27.5376429,40.6053153 30.9147857,42.0916881 40.0733571,44.6287729 C45.6319286,46.2283322 49.4569286,47.3708746 53.9869286,50.8113153 C57.5183571,53.6025356 59.6247857,56.2592136 61.0712143,58.2624 C62.9762143,60.9019932 63.8483571,63.0311797 64.7526429,65.0834847 C64.7526429,65.0834847 65.1340714,65.9120949 65.3055,66.2900949 C65.6847857,67.2681966 66.1605,67.6461966 66.7862143,67.6397898 C67.5019286,67.6333831 68.0933571,67.0097898 68.4255,66.1384678 C68.6612143,65.628061 69.2290714,63.9388068 69.2290714,63.9388068 C69.9083571,62.1256881 70.7269286,60.0093153 72.1883571,57.7391797 C74.0162143,54.8988407 76.4997857,52.4300949 79.5019286,50.3393492 C84.5333571,46.8369763 89.8497857,45.147722 92.4855,44.3041627 C92.4897857,44.3041627 95.5905,43.336739 96.8333571,43.0527051 C105.139071,41.1605695 108.794786,38.4633153 108.794786,38.4633153 M113.427643,29.5813831 C115.936929,36.453722 116.551929,41.4510102 116.329071,48.7889085 C116.136214,55.0718237 114.936214,59.4583322 114.591214,60.3317898 C114.128357,62.226061 112.553357,64.2740949 109.424786,66.510061 C109.092643,66.7471119 107.7255,67.7102644 107.423357,67.9259593 C106.024071,68.9232814 104.744786,70.426739 103.842643,71.5415186 C103.812643,71.5692814 103.778357,71.5714169 103.816929,71.5158915 C104.487643,70.5612814 105.064071,69.5105695 105.691929,68.4449085 C110.513357,60.2463661 110.7705,49.626061 110.7705,49.626061 C110.914071,46.1044678 110.8305,42.6149085 110.018357,37.6411119 C110.018357,37.6411119 112.5405,32.8766034 113.427643,29.5813831 M121.379786,33.3741966 C119.832643,27.8964 117.226929,22.6300271 114.224786,18.7581966 L113.551929,17.8505695 C111.188357,20.2744678 107.174786,23.7789763 104.2305,25.7458576 C101.843357,27.3368746 99.0555,28.5584339 92.6526429,31.0912475 C87.4026429,33.1649085 83.0333571,35.1595525 82.2726429,35.6037559 C80.2197857,36.5904 76.4226429,38.790061 72.2569286,43.5844678 C70.1505,46.0105017 68.5455,48.6735864 67.7869286,51.3772475 C67.5340714,52.2784678 66.9640714,55.9944 66.7926429,56.6628407 C66.7797857,56.6991458 66.7069286,56.6948746 66.6897857,56.6564339 C66.5183571,55.9986712 65.8626429,52.4471797 65.5776429,51.3729763 C64.9562143,49.006739 63.0255,46.2518237 60.8719286,43.657078 C56.9655,38.9438237 52.3476429,36.4280949 50.5755,35.5909424 C50.5155,35.5631797 44.2112143,32.569078 40.5426429,30.978061 C35.0805,28.6096881 31.4826429,26.9866373 29.0505,25.3977559 C23.7619286,21.8868407 21.2226429,19.0251458 19.8726429,17.2312475 C12.9469286,25.1414847 11.0505,34.9203661 10.8340714,36.0052475 C9.68978571,41.7841627 9.66192857,47.0462644 10.2555,52.3574847 C10.8147857,57.3782644 11.7597857,61.5405356 13.3562143,65.7796881 C15.5997857,71.733722 19.0947857,76.7673153 24.1369286,80.8612475 C28.7676429,84.6220271 34.7847857,87.4709085 41.1533571,89.2220949 C44.4726429,90.1318576 53.0247857,92.4276203 67.0840714,92.4276203 C85.3005,92.214061 96.5847857,88.1542983 103.094786,84.4490441 C113.3655,78.6103322 119.374071,70.1939593 121.549071,59.7872136 C122.2155,56.6009085 124.769786,45.3783661 121.379786,33.3741966"/>
  </g>
</svg>
