<svg xmlns="http://www.w3.org/2000/svg" xmlns:xlink="http://www.w3.org/1999/xlink" width="135" height="67" viewBox="0 0 135 67">
  <defs>
    <polygon id="brand-chevrolet-a" points="0 .074 134.966 .074 134.966 44.112 0 44.112"/>
  </defs>
  <g fill="none" fill-rule="evenodd">
    <path fill="#FEFEFE" d="M19.261841,58.1211047 C19.263424,58.1211047 25.8341904,58.1228033 25.8341904,58.1228033 L25.8357733,56.3409091 L17.9020992,56.3409091 C16.2590118,56.3409091 15.3614873,56.9694133 15.3614873,59.1742738 C15.3614873,59.1742738 15.3409091,60.456762 15.3409091,61.6713039 C15.3409091,62.8858457 15.3599043,64.1802246 15.3599043,64.1802246 C15.3599043,66.3663999 16.2574289,67 17.9020992,67 L26.0795455,67 L26.0795455,65.1909272 L19.2650069,65.1909272 C18.793292,65.1909272 18.6777377,65.061829 18.6777377,64.5573271 C18.6777377,64.5573271 18.6761548,58.8719124 18.6761548,58.7326222 C18.6761548,58.2417095 18.793292,58.1211047 19.261841,58.1211047"/>
    <polygon fill="#FEFEFE" points="33.824 56.341 33.824 60.527 29.074 60.527 29.074 56.341 26.08 56.341 26.08 67 29.074 67 29.074 62.233 33.824 62.233 33.824 67 36.818 67 36.818 56.341"/>
    <path fill="#FEFEFE" d="M58.9520503 56.3409091L55.8846688 65.0564233C55.8276431 65.2076282 55.7631141 65.2280153 55.5530194 65.2280153 55.3429248 65.2280153 55.2783958 65.2076282 55.2243714 65.0564233L52.1779994 56.3409091 40.7788656 56.3409091C39.2226647 56.3409091 38.3717815 56.9695134 38.3717815 59.1747254 38.3717815 59.1747254 38.3522727 60.4574181 38.3522727 61.6721535 38.3522727 62.8868889 38.3702808 64.1899687 38.3702808 64.1899687 38.3702808 66.3730946 39.2181627 67 40.7788656 67L48.7774679 67 48.7774679 65.1923378 42.0724482 65.1923378C41.6222454 65.1923378 41.5171981 65.0632191 41.5171981 64.5586367 41.5171981 64.5586367 41.5171981 63.4917082 41.5156974 62.248091L48.1771976 62.248091 48.1771976 60.4879988 41.5156974 60.4879988 41.5156974 58.7330034C41.5156974 58.2420125 41.6207448 58.1213884 42.0679462 58.1213884 42.0679462 58.1213884 47.545413 58.1230873 49.22617 58.1230873 50.2106134 60.7972042 51.9604014 65.4114998 52.1179724 65.8090496 52.3340697 66.362901 52.7182427 67 53.5436145 67L56.5014466 67C57.3268183 67 57.6074447 66.3730946 57.8265434 65.8192432 58.0426407 65.2687897 61.3636364 56.3409091 61.3636364 56.3409091L58.9520503 56.3409091zM78.6422811 58.118554L80.5334501 58.118554 82.4358593 58.118554C82.8489378 58.118554 82.9472899 58.2388712 82.9472899 58.7286132 82.9472899 58.8692658 82.9458848 64.5750145 82.9458848 64.5750145 82.9458848 65.0766187 82.8489378 65.2037144 82.4372643 65.2104928L80.5334501 65.2104928 78.6408761 65.2104928C78.2292026 65.2037144 78.1364707 65.0766187 78.1364707 64.5750145 78.1364707 64.5750145 78.1308506 58.8692658 78.1308506 58.7286132 78.1308506 58.2388712 78.2292026 58.118554 78.6422811 58.118554M85.8908255 59.1726008C85.8908255 56.969609 85.0941741 56.3493821 83.634349 56.3493821 83.634349 56.3493821 81.8766578 56.3409091 80.5320451 56.3409091 79.1888374 56.3409091 77.4423864 56.3493821 77.4423864 56.3493821 75.9853713 56.3493821 75.1887199 56.969609 75.1887199 59.1726008 75.1887199 59.1726008 75.1704545 60.450336 75.1704545 61.6636761 75.1704545 62.8753216 75.1887199 64.1920328 75.1887199 64.1920328 75.1887199 66.3679108 75.9839663 67 77.4423864 67L80.5320451 67 83.634349 67C85.0955791 67 85.8908255 66.3679108 85.8908255 64.1920328 85.8908255 64.1920328 85.9090909 62.8753216 85.9090909 61.6636761 85.9090909 60.450336 85.8908255 59.1726008 85.8908255 59.1726008"/>
    <polygon fill="#FEFEFE" points="90.915 65.193 90.915 56.341 87.443 56.341 87.443 67 98.182 66.993 98.182 65.193"/>
    <path fill="#FEFEFE" d="M102.197427 56.3409091C100.606119 56.3409091 99.7328215 56.9698142 99.7328215 59.1760811 99.7328215 59.1760811 99.7159091 60.4593874 99.7159091 61.6747039 99.7159091 62.8900204 99.731284 64.1852249 99.731284 64.1852249 99.731284 66.3727947 100.599969 67 102.197427 67 102.511076 67 110.396889 66.993201 110.396889 66.993201L110.396889 65.2067707 103.522748 65.2067707C103.063036 65.2067707 102.953874 65.0792899 102.953874 64.5727664L102.953874 62.2509169 109.751141 62.2509169 109.751141 60.4831838 102.953874 60.4831838 102.953874 58.7341478C102.953874 58.242922 103.061499 58.1222402 103.52121 58.1222402L114.242165 58.1120417 114.242165 67 117.480131 67 117.480131 58.1120417 121.193182 58.1120417 121.193182 56.3409091 102.197427 56.3409091zM69.5455728 62.4125863C69.4466106 62.3359022 69.5008802 62.2830754 69.5950539 62.2830754 69.6365541 62.2830754 71.1082173 62.2813713 71.1082173 62.2813713 72.2319167 62.2813713 73.2774041 61.9047671 73.3556161 60.2756558 73.4258473 59.8428167 73.3715778 58.7624228 73.3715778 58.7624228 73.3715778 56.9884638 72.5192262 56.3409091 71.2406989 56.3409091L61.3636364 56.3409091 61.3636364 66.9948877 64.690042 66.9948877 64.690042 58.0893067 69.6110155 58.0893067C69.9190751 58.0893067 70.0036718 58.1847358 70.014845 58.3721859 70.0292105 58.59883 70.0387874 59.0521183 70.0387874 59.4491716 70.0387874 59.8990517 70.0403836 60.2466863 70.0164411 60.4256159 69.9972872 60.6045455 69.8280938 60.7153114 69.6094193 60.7153114L65.6397596 60.7153114 65.6397596 62.3444226 70.5463676 67 75.1704545 67C75.1704545 67 69.5918615 62.4500763 69.5455728 62.4125863"/>
    <mask id="brand-chevrolet-b" fill="#fff">
      <use xlink:href="#brand-chevrolet-a"/>
    </mask>
    <path fill="#FEFEFE" d="M50.2378989,29.859122 L50.2378989,38.9014727 L84.474809,38.9014727 L84.474809,29.539909 L112.527506,29.539909 L120.315034,14.1132986 L84.2639663,14.1132986 L84.2639663,4.96504783 L50.4517753,4.96504783 L50.4517753,14.4340245 L21.3342472,14.4340245 L14.0791348,29.7547348 L50.2378989,29.859122 Z M-0.000303370787,34.8591169 L12.2680112,9.85914263 C12.2680112,9.85914263 12.374191,9.22071666 13.4405393,9.22071666 L45.4370562,9.22071666 L45.4370562,0.710891854 C45.4370562,0.710891854 45.5447528,0.0739787437 46.0786854,0.0739787437 L88.743236,0.0739787437 C88.743236,0.0739787437 89.4895281,0.28426597 89.4895281,0.924204796 L89.4895281,9.00740372 L134.605315,9.00740372 C134.605315,9.00740372 135.246944,9.22071666 134.819191,10.0709427 C134.391438,10.9226816 122.767787,34.432491 122.767787,34.432491 C122.767787,34.432491 122.66009,35.1798427 121.593742,35.1798427 L89.1694719,35.1798427 L89.1694719,43.4763546 C89.1694719,43.4763546 89.2771685,44.1117548 88.4231798,44.1117548 L46.5049213,44.1117548 C46.5049213,44.1117548 45.6509326,43.8999547 45.6509326,43.1541159 L45.6509326,34.9665298 L-0.000303370787,34.8591169 Z" mask="url(#brand-chevrolet-b)"/>
  </g>
</svg>
