<svg xmlns="http://www.w3.org/2000/svg" xmlns:xlink="http://www.w3.org/1999/xlink" width="135" height="105" viewBox="0 0 135 105">
  <defs>
    <polygon id="brand-seat-a" points="0 .001 134.634 .001 134.634 104.647 0 104.647"/>
  </defs>
  <g fill="none" fill-rule="evenodd">
    <mask id="brand-seat-b" fill="#fff">
      <use xlink:href="#brand-seat-a"/>
    </mask>
    <path fill="#FEFEFE" d="M24.4590411,94.1485263 L6.26732877,92.6527368 C4.76753425,92.5293158 4.50493151,92.0135263 4.50493151,91.1090526 C4.50493151,90.2801053 4.95986301,89.7993158 6.10089041,89.7993158 L28.5793151,89.7993158 L28.5793151,86.2624737 L5.53315068,86.2624737 C2.23767123,86.2624737 0,87.5261579 0,91.1808947 C0,94.8595789 1.69027397,96.0956316 5.43143836,96.4051053 L23.6638356,97.9211579 C25.0767123,98.0427368 25.4558219,98.518 25.4558219,99.5108947 C25.4558219,100.466947 25.0249315,101.054579 23.7858904,101.054579 L0,101.054579 L0,104.641158 L24.1964384,104.641158 C28.1983562,104.641158 29.9663014,103.051421 29.9663014,99.2769474 C29.9663014,95.8340526 28.3629452,94.4782632 24.4590411,94.1485263 L24.4590411,94.1485263 Z M36.2539726,98.3245789 C36.2539726,102.454579 38.5193836,104.641158 43.405274,104.641158 L64.9072603,104.641158 L64.9072603,101.054579 L44.55,101.054579 C41.6872603,101.054579 41.1657534,100.129842 41.1657534,97.5656316 L41.1657534,96.9743158 L63.9530137,96.9743158 L63.9530137,93.4577368 L41.1657534,93.4577368 L41.1657534,89.8508947 L64.9072603,89.8508947 L64.9072603,86.2624737 L36.2539726,86.2624737 L36.2539726,98.3245789 Z M72.4617123,92.9861579 L72.4617123,104.641158 L77.3494521,104.641158 L77.3494521,99.2769474 L95.920274,99.2769474 L95.920274,104.641158 L100.808014,104.641158 L100.808014,86.2624737 L79.5908219,86.2624737 C74.7049315,86.2624737 72.4617123,88.8506316 72.4617123,92.9861579 L72.4617123,92.9861579 Z M95.920274,89.8508947 L95.920274,95.6664211 L77.3494521,95.6664211 L77.3494521,94.0527368 C77.3494521,91.5308947 77.7563014,89.8508947 80.7373973,89.8508947 L95.920274,89.8508947 Z M134.633836,86.2624737 L134.633836,86.2624737 L106.792397,86.2624737 L106.792397,89.8508947 L118.258151,89.8508947 L118.258151,104.641158 L118.263699,104.641158 L118.263699,104.646684 L123.142192,104.646684 L123.142192,89.8508947 L134.633836,89.8508947 L134.633836,86.2624737 Z M28.0467123,39.8174737 L85.0333562,49.7390526 C83.3005479,51.0966842 81.1682877,51.8261579 78.9657534,51.8316842 C78.9657534,51.8316842 63.4536986,51.8924737 60.274726,51.8924737 C47.6106164,51.8924737 38.2105479,51.2422105 28.0836986,50.5569474 C28.2076027,53.0787895 28.5867123,60.6885263 28.755,63.2674737 C29.0157534,67.1248421 29.1341096,67.8635263 30.1031507,68.5248421 C30.5469863,68.8287895 31.4050685,69.2506316 33.6723288,69.4145789 C55.4831507,70.9306316 72.8907534,71.0632632 89.9839726,70.1348421 C97.364589,69.7332632 100.456644,69.1787895 103.108562,66.8374737 C105.026301,65.1316842 106.161781,57.6803684 106.161781,57.6803684 L106.524247,43.9345789 L28.0467123,30.3693158 L28.0467123,39.8174737 Z M53.0365068,17.8835263 C57.175274,17.7674737 66.6659589,17.3898421 75.0673973,17.4690526 C86.1910274,17.5851053 98.9586986,18.3901053 106.483562,18.7769474 C106.320822,15.5385263 106.024932,9.65484211 105.878836,7.44615789 C105.627329,3.59247368 105.497877,2.84826316 104.534384,2.19063158 C104.086849,1.88852632 103.223219,1.463 100.959658,1.30642105 C79.1488356,-0.215157895 61.7430822,-0.342263158 44.649863,0.586157895 C37.2747945,0.984052632 34.1808904,1.54405263 31.525274,3.88536842 C29.6130822,5.58378947 28.6310959,8.40405263 28.4739041,13.0351053 C28.35,16.6566842 28.1891096,22.7282632 28.1206849,25.2353684 L106.587123,38.8135263 L106.587123,29.3082632 L49.3434247,19.3627368 C50.3623973,18.4453684 51.6643151,17.9240526 53.0365068,17.8835263 L53.0365068,17.8835263 Z" mask="url(#brand-seat-b)"/>
  </g>
</svg>
