<svg xmlns="http://www.w3.org/2000/svg" xmlns:xlink="http://www.w3.org/1999/xlink" width="135" height="47" viewBox="0 0 135 47">
  <defs>
    <polygon id="brand-audi-a" points="0 0 135 0 135 47 0 47"/>
  </defs>
  <g fill="none" fill-rule="evenodd">
    <mask id="brand-audi-b" fill="#fff">
      <use xlink:href="#brand-audi-a"/>
    </mask>
    <path fill="#FEFEFE" d="M111.645631,0 C106.068441,0 100.947682,1.96885463 96.9307237,5.25332866 C92.9155835,1.96885463 87.7948248,0 82.2158165,0 C76.6368081,0 71.517868,1.96885463 67.5009092,5.25332866 C63.4839505,1.96885463 58.3631919,0 52.7841835,0 C47.2069936,0 42.086235,1.96885463 38.0710947,5.25332866 C34.054136,1.96885463 28.9333773,0 23.3561874,0 C10.4560945,0 0,10.5194659 0,23.5 C0,36.4787044 10.4560945,47 23.3561874,47 C28.9333773,47 34.054136,45.0293156 38.0710947,41.7448415 C42.086235,45.0293156 47.2069936,47 52.7841835,47 C58.3631919,47 63.4839505,45.0293156 67.5009092,41.7448415 C71.517868,45.0293156 76.6368081,47 82.2158165,47 C87.7948248,47 92.9155835,45.0293156 96.9307237,41.7448415 C100.947682,45.0293156 106.068441,47 111.645631,47 C124.543905,47 135,36.4787044 135,23.5 C135,10.5194659 124.543905,0 111.645631,0 M96.9307237,34.0597212 C94.815865,31.082652 93.566589,27.439539 93.566589,23.5 C93.566589,19.560461 94.815865,15.9155182 96.9307237,12.9366192 C99.0437641,15.9155182 100.294858,19.560461 100.294858,23.5 C100.294858,27.439539 99.0437641,31.082652 96.9307237,34.0597212 M67.5009092,34.0597212 C65.3860505,31.082652 64.1367745,27.439539 64.1367745,23.5 C64.1367745,19.560461 65.3860505,15.9155182 67.5009092,12.9366192 C69.615768,15.9155182 70.865044,19.560461 70.865044,23.5 C70.865044,27.439539 69.615768,31.082652 67.5009092,34.0597212 M38.0710947,34.0597212 C35.9544175,31.082652 34.70696,27.439539 34.70696,23.5 C34.70696,19.560461 35.9562359,15.9136884 38.0710947,12.9366192 C40.1859535,15.9136884 41.4352295,19.560461 41.4352295,23.5 C41.4352295,27.439539 40.1859535,31.082652 38.0710947,34.0597212 M5.27714544,23.5 C5.27714544,13.4526201 13.3710718,5.30639259 23.3561874,5.30639259 C27.4968009,5.30639259 31.3100931,6.71350152 34.3596358,9.07027174 C31.2737241,13.051896 29.431633,18.0563731 29.431633,23.5 C29.431633,28.9417971 31.2737241,33.9462742 34.3596358,37.9297283 C31.3100931,40.2864985 27.4968009,41.6899478 23.3561874,41.6899478 C13.3710718,41.6899478 5.27714544,33.5473799 5.27714544,23.5 M41.7825536,37.9297283 C44.8684654,33.9462742 46.7123749,28.9417971 46.7123749,23.5 C46.7123749,18.0563731 44.8684654,13.051896 41.7825536,9.07027174 C44.8302779,6.71350152 48.6435701,5.30639259 52.7841835,5.30639259 C56.9284338,5.30639259 60.741726,6.71350152 63.7894503,9.07027174 C60.7035386,13.051896 58.859629,18.0563731 58.859629,23.5 C58.859629,28.9417971 60.7035386,33.9462742 63.7894503,37.9297283 C60.741726,40.2864985 56.9284338,41.6899478 52.7841835,41.6899478 C48.6435701,41.6899478 44.8302779,40.2864985 41.7825536,37.9297283 M71.2123682,37.9297283 C74.2982799,33.9462742 76.1421894,28.9417971 76.1421894,23.5 C76.1421894,18.0563731 74.2982799,13.051896 71.2123682,9.06844195 C74.2619109,6.71350152 78.0752031,5.30639259 82.2158165,5.30639259 C86.3582484,5.30639259 90.1697221,6.71350152 93.2192648,9.07027174 C90.1315346,13.0537258 88.2894436,18.0563731 88.2894436,23.5 C88.2894436,28.9417971 90.1315346,33.9462742 93.2192648,37.9297283 C90.1697221,40.2864985 86.3582484,41.6899478 82.2158165,41.6899478 C78.0752031,41.6899478 74.2619109,40.2864985 71.2123682,37.9297283 M111.645631,41.6899478 C107.505018,41.6899478 103.691725,40.2864985 100.644001,37.9297283 C103.728094,33.9462742 105.570185,28.9417971 105.570185,23.5 C105.570185,18.0563731 103.728094,13.051896 100.644001,9.07027174 C103.691725,6.71350152 107.505018,5.30639259 111.645631,5.30639259 C121.630747,5.30639259 129.722855,13.4544499 129.722855,23.5 C129.722855,33.5473799 121.630747,41.6899478 111.645631,41.6899478" mask="url(#brand-audi-b)"/>
  </g>
</svg>
