<?xml version="1.0" encoding="utf-8"?>
<!-- Generator: Adobe Illustrator 27.5.0, SVG Export Plug-In . SVG Version: 6.00 Build 0)  -->
<svg version="1.1" id="Capa_1" xmlns="http://www.w3.org/2000/svg" xmlns:xlink="http://www.w3.org/1999/xlink" x="0px" y="0px"
	 viewBox="0 0 134 75" style="enable-background:new 0 0 134 75;" xml:space="preserve">
<style type="text/css">
	.st0{fill:#FFFFFF;}
</style>
<path class="st0" d="M2,47.5l2.4-3.9h14.1c0.8,0,1.3-0.5,1.3-1.3V40H7.8c-3.6,0-5.2-1.6-5.2-5.1v-1.5c0-2.6,1.6-4.2,4-4.2h0.3v5.7
	c0,0.8,0.5,1.3,1.3,1.3h11.7c2.7,0,4.3,1.6,4.3,4.2v2c0,3.4-1.7,5.1-5.2,5.1L2,47.5z M86.6,43.5h10.9c1.8,0,3-1.1,3-2.8v-4.8
	c0-1.7-1.1-2.8-3-2.8H86.6V43.5z M82.2,47.5V29.1h15.4c4.6,0,7.2,2.6,7.2,7v4.3c0,4.4-2.6,7-7.2,7H82.2z M61,43.5h9.2
	c1.7,0,2.7-1,2.7-2.7v-5.1c0-1.6-1.1-2.7-2.7-2.7H61c-1.7,0-2.7,1-2.7,2.7v5.1C58.2,42.5,59.3,43.5,61,43.5z M70.3,47.5h-9.4
	c-4.4,0-7-2.6-7-6.8V36c0-4.3,2.6-6.8,7-6.8h9.4c4.4,0,7,2.6,7,6.8v4.7C77.3,44.9,74.7,47.5,70.3,47.5z M106.6,47.5l10.3-18.4h6.1
	l10.3,18.4h-5l-1.8-3.2h-8.8l-2.4-3.8l-3.9,6.9H106.6z M115.5,40.4h8.8l-4.4-7.8L115.5,40.4z M11.2,32.9l-2.5-3.8h15.1l-2.4,3.8
	H11.2z M29,47.5V29.1h4.4v7.2h5.8l7.5-7.2h5.8L43,38.3l9.8,9.2h-6.1L39,40.2h-5.6v7.3H29z"/>
</svg>
